<?xml version="1.0" encoding="UTF-8"?>
<svg id="Everything" xmlns="http://www.w3.org/2000/svg" viewBox="0 0 97.92 24.4">
  <defs>
    <style>
      .cls-1 {
        fill: #1de2b5;
      }
    </style>
  </defs>
  <path class="cls-1" d="m1.83,18.7V3.3h3.56v12.5h7.72v2.9H1.83Z"/>
  <path class="cls-1" d="m16.59,5.21c-.63,0-1.14-.18-1.54-.55-.4-.37-.59-.82-.59-1.36s.2-1,.59-1.36c.4-.37.91-.55,1.54-.55s1.14.17,1.54.52.59.79.59,1.33c0,.57-.19,1.04-.58,1.42-.39.37-.91.56-1.55.56Zm-1.72,13.49V6.86h3.43v11.84h-3.43Z"/>
  <path class="cls-1" d="m28.69,6.69c.94,0,1.78.19,2.52.56s1.32.95,1.75,1.72.64,1.76.64,2.96v6.78h-3.43v-6.25c0-.95-.21-1.66-.63-2.11s-1.01-.68-1.77-.68c-.54,0-1.03.11-1.46.34-.43.23-.77.58-1.01,1.05-.24.47-.36,1.07-.36,1.8v5.85h-3.43V6.86h3.28v3.28l-.62-.99c.43-.79,1.03-1.4,1.83-1.83.79-.43,1.69-.64,2.71-.64Z"/>
  <path class="cls-1" d="m36.7,18.7V2.38h3.43v16.32h-3.43Zm2.84-2.42l.09-4.18,5.52-5.24h4.09l-5.3,5.39-1.78,1.45-2.62,2.57Zm5.98,2.42l-4-4.97,2.16-2.66,6.01,7.63h-4.16Z"/>
  <path class="cls-1" d="m54.8,18.88c-1.01,0-1.98-.12-2.92-.36-.93-.24-1.67-.55-2.21-.91l1.14-2.46c.54.34,1.18.61,1.92.83.74.21,1.47.32,2.19.32.79,0,1.35-.1,1.68-.29.33-.19.5-.45.5-.79,0-.28-.13-.49-.38-.63-.26-.14-.6-.25-1.02-.32s-.89-.15-1.4-.22c-.51-.07-1.02-.17-1.53-.3-.51-.12-.98-.31-1.41-.56-.43-.25-.77-.59-1.02-1.01-.26-.42-.38-.98-.38-1.65,0-.75.22-1.41.65-1.98.43-.57,1.06-1.02,1.88-1.35s1.8-.5,2.95-.5c.81,0,1.63.09,2.46.26.84.18,1.53.43,2.09.77l-1.14,2.44c-.57-.34-1.15-.57-1.73-.69-.58-.12-1.14-.19-1.68-.19-.76,0-1.32.1-1.67.31-.35.21-.53.47-.53.79,0,.29.13.51.39.66.26.15.6.26,1.02.35.43.09.89.17,1.4.23.51.07,1.02.17,1.53.3.51.13.98.32,1.4.56.42.24.76.57,1.02.99.26.42.4.96.4,1.64,0,.73-.22,1.38-.66,1.95-.44.56-1.07,1.01-1.9,1.33-.83.32-1.84.48-3.02.48Z"/>
  <path class="cls-1" d="m69.7,6.69c.94,0,1.78.19,2.52.56s1.32.95,1.75,1.72.64,1.76.64,2.96v6.78h-3.43v-6.25c0-.95-.21-1.66-.63-2.11s-1.01-.68-1.77-.68c-.54,0-1.03.11-1.46.34-.43.23-.77.58-1.01,1.05-.24.47-.36,1.07-.36,1.8v5.85h-3.43V2.38h3.43v7.77l-.77-.99c.43-.79,1.03-1.4,1.83-1.83.79-.43,1.69-.64,2.71-.64Z"/>
  <path class="cls-1" d="m79.42,5.21c-.63,0-1.14-.18-1.54-.55-.4-.37-.59-.82-.59-1.36s.2-1,.59-1.36c.4-.37.91-.55,1.54-.55s1.14.17,1.54.52.59.79.59,1.33c0,.57-.19,1.04-.58,1.42-.39.37-.91.56-1.55.56Zm-1.72,13.49V6.86h3.43v11.84h-3.43Z"/>
  <path class="cls-1" d="m84.33,22.97V6.86h3.28v2.42l-.07,3.52.22,3.5v6.67h-3.43Zm7-4.09c-1,0-1.87-.22-2.62-.66s-1.33-1.11-1.75-2.01-.63-2.04-.63-3.42.2-2.54.59-3.43c.4-.89.97-1.56,1.72-2s1.64-.66,2.68-.66c1.11,0,2.12.25,3,.76.89.51,1.59,1.21,2.11,2.12.52.91.78,1.98.78,3.21s-.26,2.32-.78,3.23c-.52.91-1.22,1.61-2.11,2.11-.89.5-1.89.75-3,.75Zm-.59-2.82c.57,0,1.08-.13,1.53-.4.45-.26.81-.64,1.08-1.13.27-.49.41-1.07.41-1.75s-.14-1.28-.41-1.76c-.27-.48-.63-.86-1.08-1.12-.45-.26-.96-.4-1.53-.4s-1.09.13-1.54.4c-.45.26-.81.64-1.08,1.12-.26.48-.4,1.07-.4,1.76s.13,1.26.4,1.75c.26.49.62.87,1.08,1.13.45.26.97.4,1.54.4Z"/>
</svg>